<svg width="1442" height="1111" viewBox="0 0 1442 1111" fill="none" xmlns="http://www.w3.org/2000/svg">
<rect x="1" y="1" width="1440" height="1109" fill="#ECD9C9"/>
<path opacity="0.29" d="M121 1L1 159.429" stroke="#9D8088" stroke-width="2"/>
<path opacity="0.54" d="M241 1L121 159.429" stroke="#9D8088" stroke-width="2"/>
<path opacity="0.73" d="M361 1L241 159.429" stroke="#9D8088" stroke-width="2"/>
<path opacity="0.13" d="M361 1L481 159.429" stroke="#9D8088" stroke-width="2"/>
<path opacity="0.56" d="M481 1L601 159.429" stroke="#9D8088" stroke-width="2"/>
<path opacity="0.25" d="M601 1L721 159.429" stroke="#9D8088" stroke-width="2"/>
<path opacity="0.83" d="M841 1L721 159.429" stroke="#9D8088" stroke-width="2"/>
<path opacity="0.82" d="M841 1L961 159.429" stroke="#9D8088" stroke-width="2"/>
<path opacity="0.17" d="M961 1L1081 159.429" stroke="#9D8088" stroke-width="2"/>
<path opacity="0.46" d="M1081 1L1201 159.429" stroke="#9D8088" stroke-width="2"/>
<path opacity="0.52" d="M1201 1L1321 159.429" stroke="#9D8088" stroke-width="2"/>
<path opacity="0.92" d="M1441 1L1321 159.429" stroke="#9D8088" stroke-width="2"/>
<path opacity="0.16" d="M1 159.429L121 317.857" stroke="#9D8088" stroke-width="2"/>
<path opacity="0.89" d="M121 159.429L241 317.857" stroke="#9D8088" stroke-width="2"/>
<path opacity="0.12" d="M361 159.429L241 317.857" stroke="#9D8088" stroke-width="2"/>
<path opacity="0.8" d="M361 159.429L481 317.857" stroke="#9D8088" stroke-width="2"/>
<path opacity="0.67" d="M601 159.429L481 317.857" stroke="#9D8088" stroke-width="2"/>
<path opacity="0.61" d="M601 159.429L721 317.857" stroke="#9D8088" stroke-width="2"/>
<path opacity="0.43" d="M721 159.429L841 317.857" stroke="#9D8088" stroke-width="2"/>
<path opacity="0.46" d="M961 159.429L841 317.857" stroke="#9D8088" stroke-width="2"/>
<path opacity="0.73" d="M961 159.429L1081 317.857" stroke="#9D8088" stroke-width="2"/>
<path opacity="0.2" d="M1081 159.429L1201 317.857" stroke="#9D8088" stroke-width="2"/>
<path opacity="0.77" d="M1201 159.429L1321 317.857" stroke="#9D8088" stroke-width="2"/>
<path opacity="0.76" d="M1321 159.429L1441 317.857" stroke="#9D8088" stroke-width="2"/>
<path opacity="0.98" d="M1 317.857L121 476.286" stroke="#9D8088" stroke-width="2"/>
<path opacity="0.55" d="M121 317.857L241 476.286" stroke="#9D8088" stroke-width="2"/>
<path opacity="0.42" d="M361 317.857L241 476.286" stroke="#9D8088" stroke-width="2"/>
<path opacity="0.98" d="M361 317.857L481 476.286" stroke="#9D8088" stroke-width="2"/>
<path opacity="0.63" d="M481 317.857L601 476.286" stroke="#9D8088" stroke-width="2"/>
<path opacity="0.67" d="M721 317.857L601 476.286" stroke="#9D8088" stroke-width="2"/>
<path opacity="0.78" d="M841 317.857L721 476.286" stroke="#9D8088" stroke-width="2"/>
<path opacity="0.12" d="M841 317.857L961 476.286" stroke="#9D8088" stroke-width="2"/>
<path opacity="0.14" d="M1081 317.857L961 476.286" stroke="#9D8088" stroke-width="2"/>
<path opacity="0.69" d="M1201 317.857L1081 476.286" stroke="#9D8088" stroke-width="2"/>
<path opacity="0.53" d="M1321 317.857L1201 476.286" stroke="#9D8088" stroke-width="2"/>
<path opacity="0.94" d="M1321 317.857L1441 476.286" stroke="#9D8088" stroke-width="2"/>
<path opacity="0.88" d="M1 476.286L121 634.715" stroke="#9D8088" stroke-width="2"/>
<path opacity="0.45" d="M241 476.286L121 634.715" stroke="#9D8088" stroke-width="2"/>
<path d="M241 476.286L361 634.715" stroke="#9D8088" stroke-width="2"/>
<path opacity="0.1" d="M361 476.286L481 634.715" stroke="#9D8088" stroke-width="2"/>
<path opacity="0.14" d="M481 476.286L601 634.715" stroke="#9D8088" stroke-width="2"/>
<path opacity="0.78" d="M601 476.286L721 634.715" stroke="#9D8088" stroke-width="2"/>
<path opacity="0.91" d="M721 476.286L841 634.715" stroke="#9D8088" stroke-width="2"/>
<path opacity="0.08" d="M841 476.286L961 634.715" stroke="#9D8088" stroke-width="2"/>
<path opacity="0.72" d="M961 476.286L1081 634.715" stroke="#9D8088" stroke-width="2"/>
<path opacity="0.88" d="M1081 476.286L1201 634.715" stroke="#9D8088" stroke-width="2"/>
<path opacity="0.4" d="M1201 476.286L1321 634.715" stroke="#9D8088" stroke-width="2"/>
<path opacity="0.96" d="M1441 476.286L1321 634.715" stroke="#9D8088" stroke-width="2"/>
<path opacity="0.45" d="M121 634.714L1 793.142" stroke="#9D8088" stroke-width="2"/>
<path opacity="0.93" d="M121 634.714L241 793.142" stroke="#9D8088" stroke-width="2"/>
<path opacity="0.9" d="M361 634.714L241 793.142" stroke="#9D8088" stroke-width="2"/>
<path opacity="0.56" d="M361 634.714L481 793.142" stroke="#9D8088" stroke-width="2"/>
<path opacity="0.72" d="M481 634.714L601 793.142" stroke="#9D8088" stroke-width="2"/>
<path opacity="0.43" d="M721 634.714L601 793.142" stroke="#9D8088" stroke-width="2"/>
<path opacity="0.77" d="M721 634.714L841 793.142" stroke="#9D8088" stroke-width="2"/>
<path opacity="0.88" d="M841 634.714L961 793.142" stroke="#9D8088" stroke-width="2"/>
<path opacity="0.23" d="M1081 634.714L961 793.142" stroke="#9D8088" stroke-width="2"/>
<path opacity="0.38" d="M1081 634.714L1201 793.142" stroke="#9D8088" stroke-width="2"/>
<path opacity="0.69" d="M1201 634.714L1321 793.142" stroke="#9D8088" stroke-width="2"/>
<path opacity="0.16" d="M1321 634.714L1441 793.142" stroke="#9D8088" stroke-width="2"/>
<path opacity="0.68" d="M1 793.143L121 951.571" stroke="#9D8088" stroke-width="2"/>
<path opacity="0.53" d="M241 793.143L121 951.571" stroke="#9D8088" stroke-width="2"/>
<path opacity="0.52" d="M361 793.143L241 951.571" stroke="#9D8088" stroke-width="2"/>
<path opacity="0.29" d="M361 793.143L481 951.571" stroke="#9D8088" stroke-width="2"/>
<path opacity="0.34" d="M481 793.143L601 951.571" stroke="#9D8088" stroke-width="2"/>
<path opacity="0.61" d="M721 793.143L601 951.571" stroke="#9D8088" stroke-width="2"/>
<path opacity="0.75" d="M721 793.143L841 951.571" stroke="#9D8088" stroke-width="2"/>
<path opacity="0.91" d="M961 793.143L841 951.571" stroke="#9D8088" stroke-width="2"/>
<path opacity="0.2" d="M1081 793.143L961 951.571" stroke="#9D8088" stroke-width="2"/>
<path opacity="0.44" d="M1081 793.143L1201 951.571" stroke="#9D8088" stroke-width="2"/>
<path opacity="0.11" d="M1201 793.143L1321 951.571" stroke="#9D8088" stroke-width="2"/>
<path opacity="0.47" d="M1321 793.143L1441 951.571" stroke="#9D8088" stroke-width="2"/>
<path opacity="0.89" d="M1 951.571L121 1110" stroke="#9D8088" stroke-width="2"/>
<path opacity="0.35" d="M121 951.571L241 1110" stroke="#9D8088" stroke-width="2"/>
<path opacity="0.93" d="M361 951.571L241 1110" stroke="#9D8088" stroke-width="2"/>
<path opacity="0.24" d="M361 951.571L481 1110" stroke="#9D8088" stroke-width="2"/>
<path opacity="0.66" d="M481 951.571L601 1110" stroke="#9D8088" stroke-width="2"/>
<path opacity="0.47" d="M601 951.571L721 1110" stroke="#9D8088" stroke-width="2"/>
<path opacity="0.11" d="M841 951.571L721 1110" stroke="#9D8088" stroke-width="2"/>
<path opacity="0.99" d="M841 951.571L961 1110" stroke="#9D8088" stroke-width="2"/>
<path opacity="0.08" d="M1081 951.571L961 1110" stroke="#9D8088" stroke-width="2"/>
<path opacity="0.59" d="M1081 951.571L1201 1110" stroke="#9D8088" stroke-width="2"/>
<path opacity="0.78" d="M1201 951.571L1321 1110" stroke="#9D8088" stroke-width="2"/>
<path opacity="0.73" d="M1321 951.571L1441 1110" stroke="#9D8088" stroke-width="2"/>
</svg>
