<svg width="212" height="203" viewBox="0 0 212 203" fill="none" xmlns="http://www.w3.org/2000/svg">
<g clip-path="url(#clip0_214_387)">
<path d="M178.418 48.1145H177.305V17.6385C177.305 12.9605 175.442 8.47407 172.126 5.16621C168.811 1.85834 164.314 2.30085e-09 159.625 2.30085e-09H94.9037C92.582 -3.74094e-05 90.2829 0.45616 88.1378 1.34254C85.9928 2.22893 84.0437 3.52814 82.402 5.16601C80.7602 6.80387 79.4579 8.74831 78.5693 10.8883C77.6808 13.0283 77.2234 15.3219 77.2234 17.6383V184.832C77.2234 189.51 79.0861 193.996 82.4018 197.304C85.7174 200.612 90.2144 202.47 94.9035 202.47H159.624C164.313 202.47 168.81 200.612 172.125 197.304C175.441 193.996 177.304 189.51 177.304 184.832V69.8078H178.417L178.418 48.1145Z" fill="#3F3D56"/>
<path d="M173.678 16.4576V186.013C173.678 189.56 172.265 192.961 169.752 195.469C167.238 197.978 163.829 199.387 160.274 199.389H94.2251C90.6685 199.389 87.2574 197.98 84.742 195.472C82.2265 192.964 80.8128 189.561 80.8118 186.013V16.4576C80.8128 12.9095 82.2265 9.50713 84.7418 6.99879C87.2571 4.49046 90.6681 3.08158 94.2245 3.08203H102.237C101.843 4.04721 101.693 5.09403 101.801 6.13046C101.908 7.1669 102.268 8.16122 102.851 9.02604C103.433 9.89086 104.22 10.5997 105.141 11.0902C106.063 11.5808 107.091 11.838 108.135 11.8393H145.79C146.835 11.838 147.863 11.5808 148.784 11.0902C149.706 10.5997 150.492 9.89086 151.075 9.02604C151.657 8.16122 152.018 7.1669 152.125 6.13046C152.232 5.09403 152.082 4.04721 151.689 3.08203H160.271C163.826 3.08264 167.236 4.49168 169.75 6.9994C172.264 9.50712 173.677 12.9082 173.678 16.455V16.4576Z" fill="white"/>
<path d="M127.233 84.5234C142.462 84.5234 154.807 72.2069 154.807 57.0136C154.807 41.8204 142.462 29.5039 127.233 29.5039C112.004 29.5039 99.6582 41.8204 99.6582 57.0136C99.6582 72.2069 112.004 84.5234 127.233 84.5234Z" fill="#FF7663"/>
<path d="M157.306 114.123H98.6142C98.326 114.122 98.0497 114.008 97.846 113.805C97.6422 113.602 97.5276 113.326 97.5273 113.038V98.514C97.5277 98.2265 97.6423 97.9509 97.8461 97.7477C98.0498 97.5444 98.326 97.4301 98.6142 97.4297H157.306C157.594 97.4301 157.87 97.5444 158.074 97.7477C158.278 97.9509 158.392 98.2265 158.393 98.514V113.039C158.392 113.326 158.278 113.602 158.074 113.805C157.87 114.008 157.594 114.123 157.306 114.123V114.123ZM98.6142 97.8633C98.4412 97.8634 98.2754 97.932 98.1531 98.054C98.0309 98.176 97.9621 98.3414 97.9619 98.5139V113.039C97.9621 113.211 98.0309 113.377 98.1531 113.499C98.2754 113.621 98.4412 113.689 98.6142 113.689H157.306C157.479 113.689 157.645 113.621 157.767 113.499C157.889 113.377 157.958 113.211 157.958 113.039V98.5139C157.958 98.3414 157.889 98.176 157.767 98.054C157.645 97.932 157.479 97.8634 157.306 97.8633H98.6142Z" fill="#E6E6E6"/>
<path d="M116.765 102.661C116.563 102.661 116.37 102.741 116.227 102.883C116.085 103.026 116.004 103.219 116.004 103.42C116.004 103.622 116.085 103.815 116.227 103.957C116.37 104.099 116.563 104.179 116.765 104.179H152.632C152.834 104.187 153.03 104.114 153.178 103.978C153.327 103.841 153.414 103.651 153.422 103.45C153.43 103.248 153.357 103.052 153.22 102.905C153.083 102.757 152.892 102.67 152.691 102.662C152.679 102.662 152.668 102.661 152.657 102.661L116.765 102.661Z" fill="#E6E6E6"/>
<path d="M116.765 107.214C116.563 107.214 116.37 107.294 116.227 107.436C116.085 107.579 116.004 107.772 116.004 107.973C116.004 108.174 116.085 108.367 116.227 108.51C116.37 108.652 116.563 108.732 116.765 108.732H152.632C152.834 108.74 153.03 108.667 153.178 108.53C153.327 108.394 153.414 108.204 153.422 108.002C153.43 107.801 153.357 107.605 153.22 107.457C153.083 107.31 152.892 107.222 152.691 107.215C152.679 107.214 152.668 107.214 152.657 107.214L116.765 107.214Z" fill="#E6E6E6"/>
<path d="M157.306 138.333H98.6142C98.326 138.332 98.0497 138.218 97.846 138.015C97.6422 137.811 97.5276 137.536 97.5273 137.248V122.724C97.5277 122.436 97.6423 122.161 97.8461 121.958C98.0498 121.754 98.326 121.64 98.6142 121.64H157.306C157.594 121.64 157.87 121.754 158.074 121.958C158.278 122.161 158.392 122.436 158.393 122.724V137.249C158.392 137.536 158.278 137.812 158.074 138.015C157.87 138.218 157.594 138.332 157.306 138.333ZM98.6142 122.073C98.4412 122.073 98.2754 122.142 98.1531 122.264C98.0309 122.386 97.9621 122.551 97.9619 122.724V137.249C97.9621 137.421 98.0309 137.587 98.1531 137.709C98.2754 137.831 98.4412 137.899 98.6142 137.899H157.306C157.479 137.899 157.645 137.831 157.767 137.709C157.889 137.587 157.958 137.421 157.958 137.249V122.724C157.958 122.551 157.889 122.386 157.767 122.264C157.645 122.142 157.479 122.073 157.306 122.073H98.6142Z" fill="#E6E6E6"/>
<path d="M116.765 126.949C116.563 126.949 116.37 127.029 116.227 127.172C116.085 127.314 116.004 127.507 116.004 127.708C116.004 127.91 116.085 128.103 116.227 128.245C116.37 128.387 116.563 128.467 116.765 128.467H152.632C152.831 128.466 153.022 128.387 153.163 128.248C153.305 128.108 153.386 127.919 153.389 127.721C153.392 127.522 153.317 127.33 153.181 127.186C153.044 127.042 152.856 126.957 152.657 126.95H116.765V126.949Z" fill="#E6E6E6"/>
<path d="M116.765 131.504C116.563 131.504 116.37 131.584 116.227 131.726C116.085 131.869 116.004 132.062 116.004 132.263C116.004 132.464 116.085 132.657 116.227 132.8C116.37 132.942 116.563 133.022 116.765 133.022H152.632C152.831 133.021 153.022 132.942 153.163 132.803C153.305 132.663 153.386 132.474 153.389 132.275C153.392 132.077 153.317 131.885 153.181 131.741C153.044 131.597 152.856 131.512 152.657 131.504H116.765V131.504Z" fill="#E6E6E6"/>
<path d="M157.306 162.621H98.6142C98.326 162.62 98.0497 162.506 97.846 162.303C97.6422 162.1 97.5276 161.824 97.5273 161.536V147.012C97.5277 146.725 97.6423 146.449 97.8461 146.246C98.0498 146.042 98.326 145.928 98.6142 145.928H157.306C157.594 145.928 157.87 146.042 158.074 146.246C158.278 146.449 158.392 146.725 158.393 147.012V161.537C158.392 161.824 158.278 162.1 158.074 162.303C157.87 162.506 157.594 162.621 157.306 162.621V162.621ZM98.6142 146.361C98.4412 146.361 98.2754 146.43 98.1531 146.552C98.0309 146.674 97.9621 146.839 97.9619 147.012V161.537C97.9621 161.709 98.0309 161.875 98.1531 161.997C98.2754 162.119 98.4412 162.187 98.6142 162.187H157.306C157.479 162.187 157.645 162.119 157.767 161.997C157.889 161.875 157.958 161.709 157.958 161.537V147.012C157.958 146.839 157.889 146.674 157.767 146.552C157.645 146.43 157.479 146.361 157.306 146.361H98.6142Z" fill="#E6E6E6"/>
<path d="M116.765 151.238C116.563 151.238 116.37 151.318 116.227 151.461C116.085 151.603 116.004 151.796 116.004 151.997C116.004 152.199 116.085 152.392 116.227 152.534C116.37 152.676 116.563 152.756 116.765 152.756H152.632C152.732 152.76 152.832 152.744 152.925 152.71C153.019 152.675 153.105 152.623 153.178 152.555C153.252 152.487 153.311 152.406 153.353 152.315C153.395 152.224 153.418 152.126 153.422 152.027C153.426 151.927 153.41 151.828 153.375 151.734C153.34 151.641 153.288 151.555 153.22 151.482C153.152 151.409 153.07 151.35 152.979 151.308C152.889 151.266 152.79 151.243 152.691 151.239C152.679 151.239 152.668 151.239 152.657 151.239L116.765 151.238Z" fill="#E6E6E6"/>
<path d="M116.765 155.793C116.563 155.793 116.37 155.873 116.227 156.015C116.085 156.158 116.004 156.351 116.004 156.552C116.004 156.753 116.085 156.946 116.227 157.089C116.37 157.231 116.563 157.311 116.765 157.311H152.632C152.732 157.315 152.832 157.299 152.925 157.264C153.019 157.23 153.105 157.177 153.178 157.109C153.252 157.042 153.311 156.96 153.353 156.87C153.395 156.779 153.418 156.681 153.422 156.582C153.426 156.482 153.41 156.382 153.375 156.289C153.34 156.195 153.288 156.11 153.22 156.037C153.152 155.963 153.07 155.904 152.979 155.863C152.889 155.821 152.79 155.798 152.691 155.794C152.679 155.793 152.668 155.793 152.657 155.793H116.765L116.765 155.793Z" fill="#E6E6E6"/>
<path d="M211.447 203.001H0.5534C0.247572 203.001 0 202.867 0 202.702C0 202.538 0.247857 202.404 0.5534 202.404H211.447C211.752 202.404 212 202.538 212 202.702C212 202.867 211.752 203.001 211.447 203.001Z" fill="#E6E6E6"/>
<path d="M202.515 191.387C201.614 191.703 200.647 191.782 199.706 191.617C198.766 191.452 197.883 191.047 197.145 190.443C195.264 188.868 194.674 186.274 194.195 183.871L192.775 176.765L195.747 178.806C197.883 180.274 200.068 181.789 201.548 183.915C203.028 186.041 203.673 188.943 202.485 191.244" fill="#E6E6E6"/>
<path d="M202.056 200.486C202.43 197.768 202.815 195.014 202.553 192.267C202.32 189.827 201.573 187.444 200.054 185.49C199.248 184.455 198.267 183.568 197.155 182.869C196.865 182.687 196.598 183.145 196.887 183.327C198.811 184.54 200.299 186.331 201.136 188.442C202.061 190.79 202.21 193.349 202.05 195.843C201.953 197.351 201.749 198.849 201.543 200.345C201.527 200.413 201.537 200.484 201.572 200.545C201.606 200.605 201.662 200.65 201.729 200.671C201.797 200.689 201.869 200.68 201.93 200.645C201.992 200.611 202.037 200.553 202.056 200.486H202.056Z" fill="#F2F2F2"/>
<path d="M199.364 196.124C198.978 196.709 198.447 197.186 197.822 197.508C197.197 197.83 196.5 197.985 195.797 197.96C193.992 197.875 192.486 196.618 191.132 195.425L187.124 191.894L189.776 191.767C191.684 191.676 193.641 191.591 195.459 192.178C197.277 192.765 198.951 194.177 199.284 196.052" fill="#E6E6E6"/>
<path d="M203.113 202.048C201.314 198.87 199.224 195.337 195.493 194.208C194.455 193.896 193.368 193.784 192.288 193.878C191.948 193.907 192.033 194.431 192.374 194.402C194.183 194.252 195.99 194.729 197.488 195.752C198.931 196.731 200.054 198.093 201.004 199.537C201.586 200.42 202.108 201.343 202.629 202.264C202.795 202.558 203.282 202.346 203.113 202.048Z" fill="#F2F2F2"/>
<path d="M105.936 110.241C108.458 110.241 110.501 108.202 110.501 105.687C110.501 103.172 108.458 101.133 105.936 101.133C103.415 101.133 101.372 103.172 101.372 105.687C101.372 108.202 103.415 110.241 105.936 110.241Z" fill="#3ACE21"/>
<path d="M103.751 104.836C103.699 104.836 103.656 105.176 103.656 105.595C103.656 106.014 103.699 106.354 103.751 106.354H108.24C108.292 106.361 108.336 106.027 108.337 105.608C108.366 105.347 108.334 105.083 108.243 104.836H103.751V104.836Z" fill="#E6E6E6"/>
<path d="M105.936 134.54C108.458 134.54 110.501 132.501 110.501 129.986C110.501 127.471 108.458 125.432 105.936 125.432C103.415 125.432 101.372 127.471 101.372 129.986C101.372 132.501 103.415 134.54 105.936 134.54Z" fill="#3ACE21"/>
<path d="M103.751 129.135C103.699 129.135 103.656 129.475 103.656 129.894C103.656 130.313 103.699 130.653 103.751 130.653H108.24C108.292 130.66 108.336 130.326 108.337 129.907C108.366 129.646 108.334 129.381 108.243 129.135L103.751 129.135Z" fill="#E6E6E6"/>
<path d="M105.936 158.829C108.458 158.829 110.501 156.79 110.501 154.275C110.501 151.76 108.458 149.721 105.936 149.721C103.415 149.721 101.372 151.76 101.372 154.275C101.372 156.79 103.415 158.829 105.936 158.829Z" fill="#FF7663"/>
<path d="M103.751 153.424C103.699 153.424 103.656 153.764 103.656 154.183C103.656 154.602 103.699 154.942 103.751 154.942H108.24C108.292 154.949 108.336 154.615 108.337 154.196C108.366 153.935 108.334 153.671 108.243 153.424L103.751 153.424Z" fill="#E6E6E6"/>
<path d="M121.276 49.4597L119.661 51.0713L133.189 64.568L134.805 62.9564L121.276 49.4597Z" fill="white"/>
<path d="M134.805 51.0705L133.189 49.459L119.661 62.9556L121.276 64.5672L134.805 51.0705Z" fill="white"/>
<path d="M25.7739 129.945C26.1696 129.805 26.5298 129.581 26.8292 129.287C27.1285 128.993 27.3596 128.638 27.5063 128.245C27.653 127.853 27.7116 127.433 27.6781 127.016C27.6446 126.598 27.5198 126.193 27.3124 125.829L34.0415 118.176L28.7886 117.453L23.2039 124.831C22.6138 125.22 22.187 125.81 22.0042 126.491C21.8214 127.172 21.8955 127.897 22.2123 128.527C22.5291 129.157 23.0666 129.65 23.723 129.911C24.3795 130.172 25.1092 130.184 25.7739 129.945Z" fill="#9F616A"/>
<path d="M33.8892 197.77L29.1961 197.77L26.9634 179.71L33.8901 179.71L33.8892 197.77Z" fill="#9F616A"/>
<path d="M35.0862 202.309L19.9534 202.308V202.117C19.9535 200.559 20.5741 199.064 21.6787 197.962C22.7833 196.86 24.2814 196.241 25.8435 196.241H25.8439L35.0865 196.242L35.0862 202.309Z" fill="#2F2E41"/>
<path d="M58.4565 193.852L53.9745 195.24L46.4741 178.653L53.0893 176.604L58.4565 193.852Z" fill="#9F616A"/>
<path d="M60.9487 197.833L46.4964 202.309L46.4397 202.127C45.9765 200.638 46.1249 199.027 46.8523 197.648C47.5796 196.269 48.8263 195.234 50.3182 194.772L50.3185 194.772L59.1455 192.038L60.9487 197.833Z" fill="#2F2E41"/>
<path d="M30.2952 114.507L23.3445 122.449L28.786 122.937L30.2952 114.507Z" fill="#E6E6E6"/>
<path d="M27.5793 124.744C27.5793 124.744 25.165 125.948 24.8631 131.367C24.5613 136.787 25.7686 150.939 25.7686 150.939C25.7686 150.939 24.5616 157.262 25.7686 162.982C26.9757 168.703 24.5616 189.476 26.0705 189.476C27.5793 189.476 35.4258 190.38 35.7276 189.476C36.0294 188.573 36.3313 175.024 36.3313 175.024C36.3313 175.024 38.7456 168.099 36.3313 163.885C36.3313 163.885 44.7611 178.571 50.2135 189.778C51.4068 192.231 60.4743 189.477 58.9654 186.767C57.4565 184.057 53.8351 171.713 53.8351 171.713C53.8351 171.713 51.1189 162.681 46.2905 158.767L48.7049 139.497C48.7049 139.497 53.8354 126.551 50.818 124.744C47.8005 122.938 27.5793 124.744 27.5793 124.744Z" fill="#2F2E41"/>
<path d="M36.6328 75.6668C40.9663 75.6668 44.4793 72.1621 44.4793 67.8388C44.4793 63.5155 40.9663 60.0107 36.6328 60.0107C32.2994 60.0107 28.7864 63.5155 28.7864 67.8388C28.7864 72.1621 32.2994 75.6668 36.6328 75.6668Z" fill="#A0616A"/>
<path d="M45.3848 76.2695L35.6303 81.99C35.6303 81.99 31.8953 84.0884 30.5001 87.7104C29.0129 91.5706 29.8773 97.0056 30.5001 98.2483C31.7071 100.657 29.9938 106.679 29.9938 106.679L28.4849 120.528C28.4849 120.528 23.0528 125.646 27.2779 126.249C31.5029 126.851 39.0475 125.947 43.5744 126.249C48.1013 126.55 53.2316 127.152 51.7227 124.14C50.2138 121.129 48.4031 119.022 50.2138 113.002C51.6308 108.29 51.5694 90.6715 51.4757 83.2312C51.4628 82.2095 51.1881 81.208 50.6777 80.3221C50.1674 79.4361 49.4383 78.6952 48.5599 78.1697L45.3848 76.2695Z" fill="#E5E5E5"/>
<path opacity="0.1" d="M41.0101 85.7539L41.9153 104.12L33.1413 121.846L31.6533 121.281L40.7071 104.722L41.0101 85.7539Z" fill="black"/>
<path opacity="0.1" d="M50.9679 108.033V105.925L40.7083 122.786L50.9679 108.033Z" fill="black"/>
<path d="M31.064 60.5871L29.7678 60.0698C29.7678 60.0698 32.4806 57.0908 36.2536 57.3497L35.1922 56.184C35.1922 56.184 37.7865 55.1479 40.1452 57.8676C41.385 59.2975 42.8194 60.9783 43.7146 62.8713H45.1038L44.5241 64.1451L46.5533 65.4188L44.4704 65.1909C44.6677 66.2904 44.6002 67.4211 44.2734 68.4895L44.3305 69.4963C44.3305 69.4963 41.915 65.7675 41.915 65.2501V66.5455C41.915 66.5455 40.6178 65.3797 40.6178 64.6026L39.9101 65.5094L39.5563 64.0849L35.1931 65.5094L35.9001 64.343L33.1874 64.7316L34.2488 63.3072C34.2488 63.3072 31.1828 64.9909 31.0648 66.4159C30.9469 67.8408 29.4141 69.6538 29.4141 69.6538L28.7065 68.3585C28.7065 68.3585 27.6453 62.53 31.064 60.5871Z" fill="#2F2E41"/>
<path d="M36.1404 130.797C36.505 130.589 36.8195 130.305 37.0619 129.963C37.3042 129.621 37.4684 129.23 37.5429 128.818C37.6175 128.405 37.6005 127.982 37.4933 127.577C37.386 127.172 37.1911 126.796 36.9222 126.474L42.1829 117.751L36.8847 117.97L32.7014 126.22C32.1898 126.706 31.8748 127.363 31.8161 128.066C31.7575 128.768 31.9592 129.468 32.3831 130.032C32.807 130.597 33.4236 130.986 34.1161 131.127C34.8086 131.268 35.5289 131.15 36.1404 130.797Z" fill="#9F616A"/>
<path d="M48.1013 80.184L50.3646 79.7324C50.3646 79.7324 57.1548 84.7002 55.0422 94.6358C52.9297 104.571 43.5744 119.625 43.5744 119.625C43.5744 119.625 41.4613 122.335 40.8582 122.937C40.2551 123.539 39.0475 122.937 39.6512 123.841C40.2549 124.744 38.7457 125.346 38.7457 125.346C38.7457 125.346 32.1063 125.346 32.7099 122.937C33.3136 120.529 43.5744 103.366 43.5744 103.366L42.0655 87.4086C42.0655 87.4086 40.8579 79.5817 48.1013 80.184Z" fill="#E5E5E5"/>
</g>
<defs>
<clipPath id="clip0_214_387">
<rect width="212" height="203" fill="white"/>
</clipPath>
</defs>
</svg>
