<svg id="canvas" height="auto" xmlns="http://www.w3.org/2000/svg" version="1.1" xmlns:xlink="http://www.w3.org/1999/xlink" viewBox="0 0 900 512" width="auto" style="width: auto; height: auto;"><rect width="900" height="512" fill="#6C584C"/><circle r="13.60344541125723" cx="13.60344541125723" cy="13.60344541125723" transform="matrix(1,0,0,1,339.4809648512794,314.75719850189955)" stroke-width="2" stroke="#fcddc5" fill="none"/><svg width="105.50426253687246" height="105.50426253687246" stroke-width="2" stroke="#fcddc5" fill="none" x="243.04277003898937" y="116.00173792591087"><line x1="0" y1="26.376065634218115" x2="52.75213126843623" y2="26.377065634218116"/><line x1="26.376065634218115" y1="0" x2="26.377065634218116" y2="52.75213126843623"/></svg><svg width="116.01821955202848" height="116.01821955202848" stroke-width="2" stroke="#fcddc5" fill="none" x="99.37749622817044" y="125.7847549556009"><line x1="0" y1="29.00455488800712" x2="58.00910977601424" y2="29.005554888007122"/><line x1="29.00455488800712" y1="0" x2="29.005554888007122" y2="58.00910977601424"/></svg><polyline points="795.4077758789062,352.58037365201994 838.1776514602403,309.8104980706858 880.9475270415745,352.58037365201994 923.7174026229086,309.8104980706858 966.4872782042428,352.58037365201994 1009.257153785577,309.8104980706858 1052.0270293669112,352.58037365201994" stroke-width="2" stroke="#fcddc5" fill="none"/><svg width="85.03158137240627" height="85.03158137240627" stroke-width="2" stroke="#fcddc5" fill="none" x="533.4487330777422" y="42.40512653613789"><line x1="0" y1="21.257895343101566" x2="42.51579068620313" y2="21.258895343101567"/><line x1="21.257895343101566" y1="0" x2="21.258895343101567" y2="42.51579068620313"/></svg><svg width="97.2829272628398" height="97.2829272628398" stroke-width="2" stroke="#fcddc5" fill="none" x="43.056958808853466" y="509.0444042112767"><line x1="0" y1="24.32073181570995" x2="48.6414636314199" y2="24.321731815709953"/><line x1="24.32073181570995" y1="0" x2="24.321731815709953" y2="48.6414636314199"/></svg><polyline points="243.24667358398438,360.51411635846995 264.37078588952346,339.3900040529309 285.4948981950625,360.51411635846995 306.6190105006015,339.3900040529309 327.74312280614055,360.51411635846995 348.8672351116796,339.3900040529309 369.99134741721866,360.51411635846995" stroke-width="2" stroke="#fcddc5" fill="none"/><polyline points="322.2117614746094,345.13551628890787 357.8938743412953,309.4534034222219 393.57598720798126,345.13551628890787 429.25810007466725,309.4534034222219 464.94021294135325,345.13551628890787 500.6223258080392,309.4534034222219 536.3044386747251,345.13551628890787" stroke-width="2" stroke="#fcddc5" fill="none"/><polyline points="295.30413818359375,58.28995012094883 338.6635155781061,14.930572726436427 382.02289297261854,58.28995012094883 425.38227036713096,14.930572726436427 468.7416477616434,58.28995012094883 512.1010251561556,14.930572726436427 555.460402550668,58.28995012094883" stroke-width="2" stroke="#fcddc5" fill="none"/><circle r="26.51154248225756" cx="26.51154248225756" cy="26.51154248225756" transform="matrix(1,0,0,1,224.11759085397998,21.19321624245442)" stroke-width="2" stroke="#fcddc5" fill="none"/><polyline points="585.0245361328125,281.4978888259083 608.1478183253417,258.374606633379 631.271100517871,281.4978888259083 654.3943827104004,258.374606633379 677.5176649029297,281.4978888259083 700.640947095459,258.374606633379 723.7642292879882,281.4978888259083" stroke-width="2" stroke="#fcddc5" fill="none"/><circle r="11.93294585421483" cx="11.93294585421483" cy="11.93294585421483" transform="matrix(1,0,0,1,803.5738255374392,48.4050665854055)" stroke-width="2" stroke="#fcddc5" fill="none"/><svg width="60.127522923434036" height="60.127522923434036" stroke-width="2" stroke="#fcddc5" fill="none" x="218.16770798404772" y="213.3906837916186"><line x1="0" y1="15.031880730858509" x2="30.063761461717018" y2="15.032880730858508"/><line x1="15.031880730858509" y1="0" x2="15.032880730858508" y2="30.063761461717018"/></svg><polyline points="760.9524536132812,403.3861104314218 784.2201087719601,380.1184552727429 807.4877639306391,403.3861104314218 830.7554190893179,380.1184552727429 854.0230742479969,403.3861104314218 877.2907294066757,380.1184552727429 900.5583845653547,403.3861104314218" stroke-width="2" stroke="#fcddc5" fill="none"/><polyline points="424.4198303222656,537.0602496916621 459.67585538876045,501.80422462516725 494.9318804552552,537.0602496916621 530.18790552175,501.80422462516725 565.4439305882447,537.0602496916621 600.6999556547396,501.80422462516725 635.9559807212345,537.0602496916621" stroke-width="2" stroke="#fcddc5" fill="none"/><circle r="14.236627581934655" cx="14.236627581934655" cy="14.236627581934655" transform="matrix(1,0,0,1,168.5929511983124,282.33174500809224)" stroke-width="2" stroke="#fcddc5" fill="none"/><svg width="92.39170182833797" height="92.39170182833797" stroke-width="2" stroke="#fcddc5" fill="none" x="665.8685957599542" y="53.44527044435676"><line x1="0" y1="23.097925457084493" x2="46.195850914168986" y2="23.098925457084494"/><line x1="23.097925457084493" y1="0" x2="23.098925457084494" y2="46.195850914168986"/></svg><polyline points="553.3627319335938,231.6902838420044 577.1998982855719,207.85311749002628 601.03706463755,231.6902838420044 624.8742309895281,207.85311749002628 648.7113973415062,231.6902838420044 672.5485636934844,207.85311749002628 696.3857300454625,231.6902838420044" stroke-width="2" stroke="#fcddc5" fill="none"/><polyline points="794.5274658203125,59.54134257753548 821.1602714868577,32.90853691099035 847.7930771534028,59.54134257753548 874.4258828199479,32.90853691099035 901.0586884864931,59.54134257753548 927.6914941530382,32.90853691099035 954.3242998195833,59.54134257753548" stroke-width="2" stroke="#fcddc5" fill="none"/><svg width="66.05991379831201" height="66.05991379831201" stroke-width="2" stroke="#fcddc5" fill="none" x="651.8752562498069" y="494.78082102385764"><line x1="0" y1="16.514978449578003" x2="33.029956899156005" y2="16.515978449578004"/><line x1="16.514978449578003" y1="0" x2="16.515978449578004" y2="33.029956899156005"/></svg></svg>
