<svg width="267" height="204" viewBox="0 0 267 204" fill="none" xmlns="http://www.w3.org/2000/svg">
<g clip-path="url(#clip0_214_250)">
<path d="M106.84 42.1268H105.866V15.4436C105.866 13.4155 105.467 11.4073 104.69 9.53357C103.914 7.65987 102.777 5.95739 101.343 4.52332C99.9086 3.08925 98.2062 1.95169 96.3325 1.17558C94.4588 0.399463 92.4506 1.71835e-06 90.4225 0H33.8903C29.7945 -7.80815e-06 25.8663 1.62707 22.9701 4.52328C20.0739 7.4195 18.4468 11.3476 18.4468 15.4435V161.83C18.4468 163.858 18.8462 165.866 19.6223 167.74C20.3985 169.614 21.536 171.316 22.9701 172.75C24.4041 174.184 26.1066 175.322 27.9803 176.098C29.854 176.874 31.8622 177.274 33.8903 177.274H90.4224C94.5183 177.274 98.4464 175.646 101.343 172.75C104.239 169.854 105.866 165.926 105.866 161.83V61.1204H106.84V42.1268Z" fill="#3F3D56"/>
<path d="M91.0454 4.01758H83.6661C84.0055 4.84957 84.135 5.75225 84.0433 6.64609C83.9517 7.53994 83.6415 8.39753 83.1404 9.1433C82.6392 9.88907 81.9623 10.5001 81.1693 10.9227C80.3763 11.3452 79.4916 11.5663 78.593 11.5663H46.2065C45.308 11.5663 44.4232 11.3452 43.6302 10.9227C42.8373 10.5001 42.1603 9.88907 41.6591 9.1433C41.158 8.39753 40.8479 7.53995 40.7562 6.6461C40.6645 5.75225 40.794 4.84957 41.1334 4.01758H34.2411C32.7265 4.01758 31.2268 4.31589 29.8276 4.89548C28.4283 5.47507 27.1569 6.32459 26.086 7.39553C25.015 8.46647 24.1655 9.73787 23.5859 11.1371C23.0063 12.5364 22.708 14.0361 22.708 15.5506V161.722C22.708 163.237 23.0063 164.737 23.5859 166.136C24.1655 167.535 25.015 168.806 26.086 169.877C27.1569 170.948 28.4283 171.798 29.8276 172.377C31.2268 172.957 32.7265 173.255 34.2411 173.255H91.0454C92.56 173.255 94.0597 172.957 95.4589 172.377C96.8582 171.798 98.1296 170.948 99.2005 169.877C100.271 168.806 101.121 167.535 101.701 166.136C102.28 164.737 102.579 163.237 102.579 161.722V15.5506C102.579 14.0361 102.28 12.5364 101.701 11.1371C101.121 9.73787 100.271 8.46647 99.2005 7.39553C98.1296 6.32459 96.8582 5.47507 95.4589 4.89548C94.0597 4.31589 92.56 4.01758 91.0454 4.01758Z" fill="white"/>
<path d="M124.96 177.299H0.32712C0.240362 177.299 0.157158 177.264 0.0958109 177.203C0.034464 177.142 0 177.058 0 176.972C0 176.885 0.034464 176.802 0.0958109 176.74C0.157158 176.679 0.240362 176.645 0.32712 176.645H124.96C125.046 176.645 125.13 176.679 125.191 176.74C125.252 176.802 125.287 176.885 125.287 176.972C125.287 177.058 125.252 177.142 125.191 177.203C125.13 177.264 125.046 177.299 124.96 177.299Z" fill="#CBCBCB"/>
<path d="M62.5 118C80.4493 118 95 103.449 95 85.5C95 67.5507 80.4493 53 62.5 53C44.5507 53 30 67.5507 30 85.5C30 103.449 44.5507 118 62.5 118Z" fill="#32C100" fill-opacity="0.2"/>
<path d="M62.6433 113.078C77.8996 113.078 90.2673 100.71 90.2673 85.4541C90.2673 70.1978 77.8996 57.8301 62.6433 57.8301C47.387 57.8301 35.0193 70.1978 35.0193 85.4541C35.0193 100.71 47.387 113.078 62.6433 113.078Z" fill="#32C100"/>
<path d="M59.9059 95.9928C59.2845 95.9938 58.6795 95.7928 58.1823 95.4199L58.1515 95.3968L51.6595 90.4306C51.3588 90.2001 51.1065 89.9127 50.9169 89.5846C50.7273 89.2566 50.6042 88.8945 50.5546 88.5189C50.505 88.1433 50.5299 87.7616 50.6278 87.3956C50.7257 87.0296 50.8947 86.6864 51.1252 86.3858C51.3557 86.0851 51.6432 85.8328 51.9712 85.6432C52.2992 85.4536 52.6614 85.3305 53.037 85.2809C53.4126 85.2313 53.7943 85.2561 54.1603 85.354C54.5263 85.4519 54.8694 85.621 55.1701 85.8515L59.3751 89.0761L69.3117 76.1126C69.5421 75.8121 69.8295 75.5599 70.1574 75.3704C70.4853 75.1809 70.8473 75.0578 71.2227 75.0082C71.5982 74.9586 71.9797 74.9835 72.3455 75.0813C72.7114 75.1792 73.0544 75.3482 73.3549 75.5786L73.3558 75.5792L73.2941 75.6648L73.3574 75.5792C73.9638 76.0452 74.3605 76.7327 74.4605 77.4909C74.5605 78.2491 74.3556 79.0159 73.8909 79.6232L62.2032 94.8643C61.9328 95.2155 61.5851 95.4996 61.1872 95.6947C60.7892 95.8898 60.3517 95.9907 59.9085 95.9894L59.9059 95.9928Z" fill="white"/>
<path d="M227.101 180.014C227.437 179.47 227.833 178.966 228.281 178.51C228.465 178.319 228.66 178.138 228.861 177.963C230.082 176.876 231.571 176.133 233.175 175.813C234.778 175.492 236.438 175.603 237.984 176.137C239.529 176.67 240.905 177.605 241.97 178.846C243.034 180.088 243.749 181.59 244.04 183.199C245.389 178.21 241.877 173.295 238.346 169.52C234.813 165.747 230.776 161.607 230.796 156.436C230.806 153.559 232.213 150.992 234.338 149.089C234.404 149.031 234.469 148.974 234.536 148.918C237.105 146.716 240.409 145.565 243.79 145.693C250.07 146.03 255.554 150.251 259.362 155.257C265.492 163.314 268.178 174.622 263.887 183.792C260.112 191.858 252.062 196.648 243.846 200.498C242.699 201.036 241.554 201.557 240.411 202.063C240.403 202.065 240.395 202.07 240.387 202.072C240.332 202.096 240.277 202.121 240.226 202.145C239.99 202.249 239.754 202.354 239.52 202.456L239.629 202.527L239.966 202.746C239.849 202.675 239.733 202.606 239.616 202.535C239.581 202.514 239.545 202.494 239.51 202.472C235.475 200.051 231.383 197.489 228.595 193.709C225.704 189.784 224.542 184.163 227.101 180.014Z" fill="#F1F1F1"/>
<path d="M254.024 170.899C254.918 172.932 255.51 175.084 255.783 177.288C255.997 179.253 255.916 181.239 255.543 183.18C254.742 187.169 252.994 190.907 250.448 194.08C248.526 196.489 246.308 198.646 243.846 200.498C242.699 201.036 241.554 201.558 240.411 202.063C240.403 202.065 240.395 202.071 240.388 202.073C240.333 202.097 240.278 202.121 240.226 202.146C239.99 202.25 239.754 202.354 239.52 202.457L239.629 202.527L239.967 202.746C239.849 202.675 239.734 202.606 239.616 202.536C239.582 202.514 239.545 202.494 239.51 202.472C240.398 199.366 240.529 196.092 239.891 192.925C239.253 189.758 237.865 186.79 235.844 184.269C233.812 181.781 231.22 179.807 228.281 178.511C228.465 178.319 228.66 178.139 228.861 177.963C229.993 178.483 231.077 179.102 232.101 179.813C235.76 182.342 238.508 185.983 239.938 190.196C241.214 194.018 241.374 198.124 240.398 202.034C240.6 201.901 240.803 201.765 241.001 201.63C244.76 199.095 248.225 196.05 250.835 192.317C253.085 189.161 254.526 185.501 255.029 181.658C255.529 177.46 254.478 173.331 252.604 169.585C250.534 165.578 247.926 161.872 244.853 158.571C241.765 155.179 238.275 152.178 234.458 149.634C234.372 149.576 234.312 149.487 234.289 149.385C234.267 149.284 234.285 149.178 234.338 149.089C234.379 149.009 234.45 148.947 234.536 148.918C234.58 148.907 234.626 148.906 234.67 148.915C234.714 148.924 234.755 148.943 234.791 148.97C235.263 149.285 235.73 149.602 236.191 149.928C240.034 152.65 243.525 155.838 246.582 159.42C249.536 162.873 252.225 166.709 254.024 170.899Z" fill="white"/>
<path d="M171.751 12.8269C174.991 12.8269 177.618 10.2004 177.618 6.96033C177.618 3.72031 174.991 1.09375 171.751 1.09375C168.511 1.09375 165.885 3.72031 165.885 6.96033C165.885 10.2004 168.511 12.8269 171.751 12.8269Z" fill="#F1F1F1"/>
<path d="M244.699 91.3351C246.674 91.3351 248.276 89.7338 248.276 87.7584C248.276 85.783 246.674 84.1816 244.699 84.1816C242.724 84.1816 241.122 85.783 241.122 87.7584C241.122 89.7338 242.724 91.3351 244.699 91.3351Z" fill="#F1F1F1"/>
<path d="M140.021 101.149C141.996 101.149 143.598 99.5472 143.598 97.5719C143.598 95.5965 141.996 93.9951 140.021 93.9951C138.045 93.9951 136.444 95.5965 136.444 97.5719C136.444 99.5472 138.045 101.149 140.021 101.149Z" fill="#F1F1F1"/>
<path d="M142.04 203.142H266.673C266.76 203.142 266.843 203.107 266.904 203.046C266.965 202.984 267 202.901 267 202.814C267 202.728 266.965 202.644 266.904 202.583C266.843 202.522 266.76 202.487 266.673 202.487H142.04C141.953 202.487 141.87 202.522 141.809 202.583C141.748 202.644 141.713 202.728 141.713 202.814C141.713 202.901 141.748 202.984 141.809 203.046C141.87 203.107 141.953 203.142 142.04 203.142Z" fill="#CBCBCB"/>
<path d="M252.919 31.6109C253.083 30.449 252.814 29.2674 252.165 28.2901C251.516 27.3128 250.53 26.6076 249.396 26.3081C248.261 26.0087 247.057 26.1358 246.009 26.6654C244.962 27.195 244.146 28.0903 243.715 29.1816L233.601 40.7762L236.569 49.0643L246.74 35.5166C247.404 35.7292 248.106 35.7937 248.797 35.7055C249.489 35.6173 250.152 35.3787 250.741 35.0063C251.33 34.6339 251.831 34.1369 252.207 33.5503C252.583 32.9636 252.826 32.3016 252.919 31.6109Z" fill="#FFB7B7"/>
<path d="M210.996 76.7256L244.568 40.8965L240.04 33.6973L197.932 69.3088L210.996 76.7256Z" fill="#3F3D56"/>
<path d="M203.504 54.9559C210.007 54.9559 215.28 49.6835 215.28 43.1796C215.28 36.6758 210.007 31.4033 203.504 31.4033C197 31.4033 191.727 36.6758 191.727 43.1796C191.727 49.6835 197 54.9559 203.504 54.9559Z" fill="#2F2E41"/>
<path d="M204.45 36.5276C206.984 33.9579 210.051 31.9749 213.434 30.7182C215.606 29.9137 217.969 29.4166 220.24 29.8735C222.51 30.3304 224.657 31.901 225.29 34.1286C225.808 35.9501 225.274 37.9113 224.47 39.626C223.666 41.3407 222.593 42.9307 221.943 44.7094C221.28 46.5243 221.08 48.4761 221.363 50.3876C221.645 52.2991 222.4 54.1098 223.56 55.6553C224.72 57.2008 226.247 58.4323 228.004 59.2378C229.76 60.0433 231.69 60.3974 233.618 60.268C231.387 60.5671 229.331 61.6154 227.15 62.1734C224.97 62.7314 222.396 62.6935 220.776 61.1314C219.061 59.4787 219.027 56.7915 219.11 54.4116C219.233 50.8738 219.356 47.336 219.48 43.7982C219.542 41.994 219.596 40.132 218.945 38.448C218.295 36.764 216.748 35.2894 214.943 35.3048C213.575 35.3164 212.364 36.1452 211.267 36.9626C210.17 37.78 209.008 38.6521 207.645 38.7737C206.283 38.8953 204.727 37.8867 204.829 36.5223L204.45 36.5276Z" fill="#2F2E41"/>
<path d="M158.776 122.252C157.646 122.566 156.439 122.454 155.386 121.938C154.332 121.422 153.504 120.538 153.059 119.452C152.614 118.366 152.582 117.155 152.97 116.048C153.359 114.941 154.14 114.014 155.165 113.444L165.339 101.902L173.944 103.761L161.841 115.616C162.139 116.246 162.294 116.934 162.297 117.631C162.3 118.327 162.15 119.017 161.858 119.649C161.566 120.282 161.139 120.843 160.606 121.293C160.074 121.742 159.449 122.07 158.776 122.252Z" fill="#FFB7B7"/>
<path d="M192.247 80.9307L166.891 112.759L159.162 109.211L188.965 62.8105L192.247 80.9307Z" fill="#3F3D56"/>
<path d="M172.015 177.041L165.972 176.946L166.699 197.544H172.014L172.015 177.041Z" fill="#FFB7B7"/>
<path d="M173.37 195.808L162.902 195.808H162.901C161.132 195.808 159.435 196.511 158.184 197.762C156.933 199.013 156.23 200.709 156.23 202.479V202.695L173.37 202.696L173.37 195.808Z" fill="#2F2E41"/>
<path d="M212.027 171.578L205.426 175.816L218.631 191.703L223.104 188.831L212.027 171.578Z" fill="#FFB7B7"/>
<path d="M223.307 186.638L214.498 192.293L214.498 192.293C213.009 193.249 211.961 194.758 211.584 196.486C211.207 198.215 211.533 200.022 212.489 201.511L212.606 201.694L227.028 192.434L223.307 186.638Z" fill="#2F2E41"/>
<path d="M214.379 108.682C214.379 108.682 199.711 59.9654 194.998 59.3071C190.284 58.6488 182.689 71.8073 182.689 71.8073C172.841 84.3714 162.687 125.069 162.687 125.069C162.687 125.069 179.615 126.128 191.988 132.712C204.362 139.295 218.965 132.379 218.965 132.379L214.379 108.682Z" fill="#3F3D56"/>
<path opacity="0.1" d="M214.379 108.682C214.379 108.682 199.711 59.9652 194.998 59.3069C190.284 58.6485 184.618 71.9406 184.618 71.9406C179.711 92.222 162.687 125.069 162.687 125.069C162.687 125.069 179.615 126.128 191.988 132.712C204.362 139.295 218.965 132.378 218.965 132.378L214.379 108.682Z" fill="black"/>
<path d="M202.345 94.1061V118.586L205.226 154.047L219.62 180.871L212.75 185.778L193.123 160.262L185.36 134.927L173.169 191.012L164.009 190.357L170.37 112.598L182.441 90.71L202.345 94.1061Z" fill="#2F2E41"/>
<path d="M187.556 70.4287C182.977 75.0084 187.229 79.9152 187.229 79.9152L181.995 91.6915L202.604 97.2525L209.806 65.0711L204.899 59.8371C195.085 59.51 195.08 59.3066 195.08 59.3066C193.361 60.9893 187.556 70.4287 187.556 70.4287Z" fill="#607AFF"/>
<path d="M210.636 61.7374C209.7 61.0465 208.636 60.5481 207.506 60.2713C206.376 59.9944 205.202 59.9444 204.053 60.1243C202.904 60.3042 201.801 60.7104 200.81 61.3193C199.819 61.9282 198.958 62.7278 198.278 63.6717C193.097 70.8854 188.307 82.5337 194.907 97.0613C205.506 120.388 214.728 132.33 218.478 132.328C218.642 132.33 218.804 132.304 218.96 132.253C221.268 131.47 224.605 127.564 225.209 124.123C225.425 122.891 225.373 121.175 223.9 119.997C219.669 116.613 212.072 106.074 209.703 92.2037C208.393 84.5394 210.933 77.5579 213.294 73.051C214.291 71.1861 214.583 69.0243 214.116 66.9617C213.648 64.8992 212.453 63.0742 210.75 61.8212L210.636 61.7374Z" fill="#3F3D56"/>
<path d="M204.109 53.7989C208.31 51.5025 209.854 46.2354 207.558 42.0345C205.261 37.8336 199.994 36.2897 195.793 38.5861C191.592 40.8825 190.048 46.1496 192.345 50.3505C194.641 54.5514 199.908 56.0953 204.109 53.7989Z" fill="#FFB7B7"/>
<path d="M187.76 45.5373H200.277L200.406 43.7402L201.048 45.5373H202.975L203.229 41.9755L204.501 45.5373H208.231V45.3609C208.228 42.8812 207.242 40.5038 205.488 38.7504C203.735 36.9969 201.358 36.0106 198.878 36.0078H197.113C194.633 36.0106 192.256 36.9969 190.503 38.7503C188.749 40.5038 187.763 42.8811 187.76 45.3609V45.5373Z" fill="#2F2E41"/>
<path d="M206.34 51.9974L211.682 50.2641V37.292H201.592L201.842 37.5414C205.317 41.0124 209.183 53.3272 206.34 51.9974Z" fill="#2F2E41"/>
</g>
<defs>
<clipPath id="clip0_214_250">
<rect width="267" height="203.141" fill="white"/>
</clipPath>
</defs>
</svg>
