<svg width="496" height="496" viewBox="0 0 496 496" fill="none" xmlns="http://www.w3.org/2000/svg">
<g clip-path="url(#clip0_175_263)">
<mask id="mask0_175_263" style="mask-type:alpha" maskUnits="userSpaceOnUse" x="9" y="1" width="478" height="493">
<path d="M125.222 476.019C14.15 428.343 -21.6013 287.634 46.317 161.366C114.235 35.0986 259.553 -27.888 370.625 19.7887C481.697 67.4654 517.448 208.174 449.53 334.442C381.611 460.709 236.294 523.696 125.222 476.019Z" fill="white" stroke="white" stroke-width="4"/>
</mask>
<g mask="url(#mask0_175_263)">
<path d="M631.215 125.204L225.541 552.985" stroke="#E0E0E0" stroke-width="4" stroke-linecap="round"/>
<path d="M592.215 125.204L186.541 552.985" stroke="#E0E0E0" stroke-width="4" stroke-linecap="round"/>
<path d="M569.548 107.541L163.874 535.323" stroke="#E0E0E0" stroke-width="4" stroke-linecap="round"/>
<path d="M546.882 89.8784L141.208 517.66" stroke="#E0E0E0" stroke-width="4" stroke-linecap="round"/>
<path d="M524.216 72.2153L118.542 499.997" stroke="#E0E0E0" stroke-width="4" stroke-linecap="round"/>
<path d="M501.549 54.5518L95.8747 482.333" stroke="#E0E0E0" stroke-width="4" stroke-linecap="round"/>
<path d="M478.883 36.8901L73.2087 464.672" stroke="#E0E0E0" stroke-width="4" stroke-linecap="round"/>
<path d="M456.216 19.2275L50.5422 447.009" stroke="#E0E0E0" stroke-width="4" stroke-linecap="round"/>
<path d="M433.55 1.56494L27.8757 429.347" stroke="#E0E0E0" stroke-width="4" stroke-linecap="round"/>
<path d="M410.883 -16.0977L5.20915 411.684" stroke="#E0E0E0" stroke-width="4" stroke-linecap="round"/>
<path d="M388.217 -33.7607L-17.4569 394.021" stroke="#E0E0E0" stroke-width="4" stroke-linecap="round"/>
<path d="M361.563 -47.2192L-44.1107 380.562" stroke="#E0E0E0" stroke-width="4" stroke-linecap="round"/>
<path d="M338.897 -64.8823L-66.7772 362.899" stroke="#E0E0E0" stroke-width="4" stroke-linecap="round"/>
<path d="M338.899 -106.887L-65.399 319.443" stroke="#E0E0E0" stroke-width="4" stroke-linecap="round"/>
<path d="M338.899 -146.889L-65.399 279.441" stroke="#E0E0E0" stroke-width="4" stroke-linecap="round"/>
</g>
<path d="M274.331 89.8002L303.781 85.7163C330.514 82.0092 357.347 91.7948 375.417 111.841C378.917 115.723 382.034 119.933 384.726 124.413L390.692 134.34C399.038 148.229 403.448 164.128 403.448 180.331C403.448 189.034 402.175 197.69 399.671 206.025L396.962 215.04C393.706 225.876 389.229 236.376 383.675 246.234C370.565 269.503 363.602 295.895 363.602 322.602V326.067L361.552 341.983C359.18 360.403 351.248 377.661 338.813 391.455L328.081 403.361C325.24 406.513 321.676 408.928 317.697 410.4C302.82 415.901 286.503 407.04 283.016 391.567L278.217 370.271L268.97 318.98C267.733 312.116 261.758 307.122 254.784 307.122C248.42 307.122 242.809 311.295 240.978 317.389L232.679 345.011L223.749 384.636C222.165 391.663 218.107 397.887 212.316 402.17C198.587 412.323 179.166 408.994 169.602 394.848L157.341 376.712C154.455 372.442 152.232 367.76 150.749 362.824L146.943 350.157C143.401 338.37 141.602 326.129 141.602 313.822C141.602 292.847 136.376 272.202 126.398 253.753L121.782 245.217C112.374 227.823 107.448 208.251 107.448 188.476C107.448 167.02 113.286 145.851 124.338 127.461L126.17 124.413C128.862 119.933 131.979 115.723 135.478 111.841C153.549 91.7948 180.381 82.0092 207.114 85.7163L236.565 89.8002C249.094 91.5376 261.802 91.5376 274.331 89.8002Z" fill="#B5C1FF" stroke="#788CF5" stroke-width="9"/>
<path d="M218.165 233.48C208.231 229.605 196.934 236.273 200.151 246.439C200.242 246.727 200.335 247.014 200.431 247.3C202.897 254.678 206.871 261.462 212.102 267.22C217.332 272.978 223.703 277.585 230.81 280.747C237.917 283.909 245.605 285.557 253.383 285.587C261.162 285.617 268.862 284.028 275.993 280.92C283.124 277.813 289.531 273.255 294.805 267.538C300.079 261.82 304.106 255.067 306.628 247.708C306.737 247.392 306.842 247.075 306.945 246.758C310.214 236.635 299.009 229.885 289.065 233.661C277.882 237.908 264.147 242.074 253.383 242.032C242.695 241.991 229.19 237.78 218.165 233.48Z" fill="#7B8FFA"/>
<path d="M222.448 170.497C222.448 186.904 210.448 165.289 192.448 165.289C174.448 165.289 162.448 186.904 162.448 170.497C162.448 154.09 175.879 140.789 192.448 140.789C209.016 140.789 222.448 154.09 222.448 170.497Z" fill="#7B8FFA"/>
<path d="M343.448 170.497C343.448 186.904 331.448 165.289 313.448 165.289C295.448 165.289 283.448 186.904 283.448 170.497C283.448 154.09 296.879 140.789 313.448 140.789C330.016 140.789 343.448 154.09 343.448 170.497Z" fill="#7B8FFA"/>
<path d="M343.448 170.497C343.448 186.904 330.016 170.497 313.448 170.497C296.879 170.497 283.448 186.904 283.448 170.497C283.448 154.09 296.879 140.789 313.448 140.789C330.016 140.789 343.448 154.09 343.448 170.497Z" fill="#7B8FFA"/>
<path d="M222.448 170.497C222.448 186.904 209.016 170.497 192.448 170.497C175.879 170.497 162.448 186.904 162.448 170.497C162.448 154.09 175.879 140.789 192.448 140.789C209.016 140.789 222.448 154.09 222.448 170.497Z" fill="#7B8FFA"/>
</g>
<defs>
<clipPath id="clip0_175_263">
<rect width="496" height="496" fill="white"/>
</clipPath>
</defs>
</svg>
