<svg width="467" height="496" viewBox="0 0 467 496" fill="none" xmlns="http://www.w3.org/2000/svg">
<g clip-path="url(#clip0_123_226)">
<mask id="mask0_123_226" style="mask-type:alpha" maskUnits="userSpaceOnUse" x="8" y="3" width="450" height="491">
<path d="M109.69 477.887C8.0549 434.261 -20.0508 296.268 48.3711 169.064C116.793 41.8598 254.96 -24.7626 356.595 18.8632C458.23 62.4891 486.335 200.483 417.913 327.687C349.491 454.89 211.325 521.513 109.69 477.887Z" fill="white" stroke="white" stroke-width="4"/>
</mask>
<g mask="url(#mask0_123_226)">
<path d="M550.788 136.688L145.114 564.469" stroke="#E0E0E0" stroke-width="4" stroke-linecap="round"/>
<path d="M528.121 119.025L122.447 546.807" stroke="#E0E0E0" stroke-width="4" stroke-linecap="round"/>
<path d="M505.455 101.362L99.7809 529.144" stroke="#E0E0E0" stroke-width="4" stroke-linecap="round"/>
<path d="M482.789 83.6992L77.1147 511.481" stroke="#E0E0E0" stroke-width="4" stroke-linecap="round"/>
<path d="M460.122 66.0356L54.4479 493.817" stroke="#E0E0E0" stroke-width="4" stroke-linecap="round"/>
<path d="M437.456 48.374L31.7819 476.156" stroke="#E0E0E0" stroke-width="4" stroke-linecap="round"/>
<path d="M414.789 30.7114L9.11515 458.493" stroke="#E0E0E0" stroke-width="4" stroke-linecap="round"/>
<path d="M392.123 13.0488L-13.5513 440.83" stroke="#E0E0E0" stroke-width="4" stroke-linecap="round"/>
<path d="M369.457 -4.61377L-36.2176 423.168" stroke="#E0E0E0" stroke-width="4" stroke-linecap="round"/>
<path d="M346.79 -22.2769L-58.8839 405.505" stroke="#E0E0E0" stroke-width="4" stroke-linecap="round"/>
<path d="M320.136 -35.7354L-85.5377 392.046" stroke="#E0E0E0" stroke-width="4" stroke-linecap="round"/>
<path d="M297.47 -53.3984L-108.204 374.383" stroke="#E0E0E0" stroke-width="4" stroke-linecap="round"/>
</g>
<path d="M253.883 87.0112L283.333 82.9273C310.067 79.2201 336.899 89.0057 354.97 109.052C358.469 112.934 361.586 117.144 364.278 121.624L370.244 131.551C378.59 145.44 383 161.338 383 177.542C383 186.245 381.728 194.901 379.223 203.236L376.515 212.251C373.258 223.087 368.781 233.587 363.227 243.445C350.117 266.714 343.154 293.106 343.154 319.813V323.278L341.104 339.194C338.732 357.614 330.8 374.872 318.365 388.666L307.633 400.572C304.792 403.724 301.229 406.139 297.249 407.611C282.372 413.112 266.056 404.251 262.569 388.778L257.769 367.482L248.522 316.191C247.285 309.327 241.311 304.333 234.336 304.333C227.972 304.333 222.362 308.506 220.53 314.6L212.231 342.222L203.301 381.847C201.717 388.874 197.659 395.098 191.868 399.381C178.139 409.534 158.718 406.205 149.155 392.059L136.893 373.923C134.007 369.653 131.784 364.971 130.301 360.035L126.495 347.368C122.953 335.581 121.154 323.34 121.154 311.033C121.154 290.058 115.929 269.413 105.95 250.964L101.334 242.428C91.9263 225.034 87 205.462 87 185.687C87 164.231 92.8387 143.062 103.89 124.672L105.722 121.624C108.414 117.144 111.531 112.934 115.03 109.052C133.101 89.0057 159.933 79.2201 186.667 82.9272L216.117 87.0112C228.646 88.7485 241.354 88.7485 253.883 87.0112Z" fill="#B5C1FF" stroke="#788CF5" stroke-width="9"/>
<path d="M197.718 230.691C187.783 226.816 176.486 233.484 179.703 243.65C179.794 243.938 179.887 244.225 179.983 244.511C182.449 251.889 186.424 258.673 191.654 264.431C196.884 270.189 203.255 274.796 210.362 277.958C217.469 281.12 225.157 282.768 232.936 282.798C240.714 282.828 248.414 281.239 255.545 278.131C262.677 275.024 269.083 270.466 274.357 264.748C279.631 259.031 283.658 252.278 286.181 244.919C286.289 244.603 286.394 244.286 286.497 243.969C289.766 233.846 278.562 227.096 268.617 230.872C257.435 235.118 243.7 239.285 232.936 239.243C222.248 239.202 208.742 234.991 197.718 230.691Z" fill="#7B8FFA"/>
<path d="M202 167.708C202 184.115 190 162.5 172 162.5C154 162.5 142 184.115 142 167.708C142 151.301 155.431 138 172 138C188.569 138 202 151.301 202 167.708Z" fill="#7B8FFA"/>
<path d="M323 167.708C323 184.115 311 162.5 293 162.5C275 162.5 263 184.115 263 167.708C263 151.301 276.431 138 293 138C309.569 138 323 151.301 323 167.708Z" fill="#7B8FFA"/>
<path d="M323 167.708C323 184.115 309.569 167.708 293 167.708C276.431 167.708 263 184.115 263 167.708C263 151.301 276.431 138 293 138C309.569 138 323 151.301 323 167.708Z" fill="#7B8FFA"/>
<path d="M202 167.708C202 184.115 188.569 167.708 172 167.708C155.431 167.708 142 184.115 142 167.708C142 151.301 155.431 138 172 138C188.569 138 202 151.301 202 167.708Z" fill="#7B8FFA"/>
</g>
<defs>
<clipPath id="clip0_123_226">
<rect width="467" height="496" fill="white"/>
</clipPath>
</defs>
</svg>
